<?xml version="1.0" encoding="UTF-8"?>
<!DOCTYPE svg PUBLIC "-//W3C//DTD SVG 1.1//EN" "http://www.w3.org/Graphics/SVG/1.1/DTD/svg11.dtd">
<!-- Creator: CorelDRAW -->
<svg xmlns="http://www.w3.org/2000/svg" xml:space="preserve" width="500px" height="500px" version="1.1" style="shape-rendering:geometricPrecision; text-rendering:geometricPrecision; image-rendering:optimizeQuality; fill-rule:evenodd; clip-rule:evenodd"
viewBox="0 0 500 500"
 xmlns:xlink="http://www.w3.org/1999/xlink"
 xmlns:xodm="http://www.corel.com/coreldraw/odm/2003">
 <defs>
  <style type="text/css">
   <![CDATA[
    .fil0 {fill:white}
   ]]>
  </style>
 </defs>
 <g id="Camada_x0020_1">
  <metadata id="CorelCorpID_0Corel-Layer"/>
  <path class="fil0" d="M79.98 345.7c-0.35,-3.14 1.68,-6.33 3.71,-7.26 3.24,-1.5 5.84,-1.26 9.74,-1.25 7.35,0.01 14.7,-0.01 22.05,0 95.57,0.2 191.22,-0.21 286.77,0 6.08,0.02 13.92,-0.93 14.94,7.17 0.42,3.41 -2.1,6.06 -3.87,7.24 -2.54,1.69 -6.41,1.29 -9.72,1.29l-308.82 -0.01c-3.37,0 -7.37,0.37 -10.15,-0.87 -2.1,-0.93 -4.3,-3.24 -4.65,-6.31zm319.38 -212.03l0.87 0.89c0.95,1.56 1.03,7.28 1.03,9.24l0.02 83.51c-0.14,27.74 0.18,55.82 0,83.51 -0.02,2.89 0.55,9.41 -0.55,11.3 -6.13,0.34 -12.77,0.12 -18.96,0.12l-246.7 0c-4.17,0 -34.56,0.23 -37.82,-0.03 -0.25,-0.38 -0.47,-0.72 -0.59,-1.19 -0.31,-10.1 -0.04,-21.04 -0.05,-31.36l0 -141.59c0,-4.77 -0.67,-10.62 1.4,-14.31 2.51,-4.47 5.09,-5.42 9.54,-6.22 3.29,-0.59 11.7,-0.17 15.59,-0.16 10.42,0.03 20.86,0.02 31.28,0 62.82,-0.17 125.83,0.21 188.63,0 10.5,-0.04 21.02,-0.05 31.52,-0.01 3.91,0.02 12.19,-0.43 15.48,0.24 3.54,0.72 3.22,0.38 5.73,2.17 2.93,2.09 2.6,3.29 3.58,3.89zm-318.58 9c0.18,27.31 -0.03,54.62 0,81.93l0 92.52c0,1.61 0.31,4.05 -0.29,5.35 -0.75,1.6 -2.16,0.64 -4.02,1.78 -4.05,2.47 -6.43,4.62 -8.79,8.31 -0.73,1.13 -1.22,2.71 -1.9,3.95 -1.18,2.17 -1.79,6.95 -1.63,9.87 0.37,6.95 3.91,12.43 7.39,15.58 7.37,6.67 13.35,5.86 23.24,5.86l176.69 0c44.95,0.01 89.89,-0.17 134.84,0.02 9.19,0.01 12.73,-0.46 18.4,-5.08 3.62,-2.95 7.51,-8.51 8.17,-15.24 0.76,-7.79 -2.16,-13.35 -5.53,-17.91 -1.36,-1.85 -4.13,-3.77 -6.52,-5.18 -5.67,-3.37 -4.46,1.38 -4.48,-14.97l-0.01 -168.82c0,-9.57 -3.22,-14.93 -7.59,-20.23 -1.76,-2.14 -5.57,-4.41 -8.13,-5.81 -5.8,-3.16 -8.44,-2.63 -14.35,-2.63l-268.08 0c-4.78,0 -9.65,-0.23 -14.4,0.06 -1.53,0.09 -4.64,1.21 -5.9,1.8 -7.26,3.43 -12.08,7.97 -15.19,15.41 -1.42,3.38 -1.95,9.18 -1.92,13.43z"/>
  <path class="fil0" d="M178.29 248.32c0.61,0.31 4.97,0.45 5.86,0.22 1.23,-0.31 0.83,-2.82 0.83,-5.25 0,-3.98 0.18,-8.05 -0.23,-11.78 1.28,0.28 1.93,1.29 2.66,2.2l10.6 13.04c0.81,0.95 1.29,1.85 2.77,1.88 3.07,0.04 4.22,0.4 4.42,-1.28 0.02,-0.16 0,-0.71 0,-0.91 -0.15,-5.26 0.28,-25.88 -0.42,-27.39 -1.11,-0.24 -5,-0.31 -5.76,0.15 -0.82,0.6 -0.51,2.58 -0.5,4.05 0,2.89 0.19,11.34 0,13.02 -1.25,-0.22 -3.65,-3.57 -4.56,-4.82 -0.8,-1.1 -1.29,-1.57 -2.16,-2.58 -1.95,-2.26 -7.25,-9.64 -8.8,-9.93 -0.36,-0.06 -4.01,0.01 -4.47,0.09 -0.77,1.33 -0.53,1.53 -0.5,3.32 0.03,1.27 0.01,2.56 0.02,3.83l0.03 14.86c0.01,1.27 0,2.55 0.03,3.82 0.03,1.88 -0.36,2.57 0.18,3.46z"/>
  <path class="fil0" d="M303.53 258.9c0.48,-0.15 0.3,0.24 0.58,-0.56 0.12,-0.36 -0.16,-14.5 0.03,-16.42 1.22,0 1.8,1.37 2.47,2.25l6.41 7.77c1.85,2.1 5.22,7.01 6.89,7.23 1.07,0.14 3.64,0.08 4.19,-0.24l-0.23 -12.94c0,-4.35 0.03,-8.71 0,-13.06l-1.39 -0.68c-0.3,-0.11 -0.97,-0.29 -1.01,-0.31 -0.54,-0.27 0.54,-0.28 -0.81,-0.45l-0.79 0.36c-0.3,-1.67 0.19,-0.43 -0.66,-1.12 -0.09,1.25 0.04,0.07 -0.26,0.91 -0.66,1.92 -0.39,5.17 -0.39,7.6 0,1.5 -0.03,3 -0.03,4.5 -0.01,1.93 -0.18,2.32 -0.43,3.87l-1.2 -0.01 -2.4 -3.66c-0.27,-0.37 -0.56,-0.62 -0.87,-0.94 -1.56,-1.56 -1.67,-1.99 -2.33,-2.63l-3.07 -3.41c-0.36,-0.52 -0.3,-0.65 -0.83,-1.24 -2.15,-2.36 -1.14,-2.14 -3.04,-3.73 -1.3,-1.09 -1.14,-1.37 -2.49,-1.49 -0.32,-0.03 -0.8,-0.02 -1.13,-0.02 -0.54,0.01 -2.03,-0.02 -2.25,0.45l-0.35 1.31c-0.04,0.54 -0.01,1.26 -0.01,1.82 -0.01,4.31 -0.24,23.37 0.14,24.53 1.22,0.38 4.36,0.15 5.26,0.31z"/>
  <path class="fil0" d="M120.7 245.76c3.33,3.38 13.5,4.25 18.64,2.03 5.79,-2.5 7.92,-10.33 1.97,-14.12 -4.53,-2.88 -17.53,-3.17 -12.69,-8.31 1.8,-1.92 6.95,-1.32 9.53,-0.5 1.73,0.54 2.86,2.13 3.7,0.47 0.91,-1.82 1.48,-2.63 1.27,-4.31 -3.63,-2.82 -12.31,-3.23 -17.2,-1.04 -4.79,2.15 -7.43,9.65 -2.3,13.61 4.82,3.72 14.23,2.82 14.34,6.78 0.1,3.32 -4.99,3.33 -7.37,3.07 -5.3,-0.56 -6.23,-2.39 -7.67,-2.57 -0.96,0.99 -2.42,3.07 -2.22,4.89z"/>
  <path class="fil0" d="M96.66 321.02c0.12,0.47 0.34,0.81 0.59,1.19 3.26,0.26 33.65,0.03 37.82,0.03l246.7 0c6.19,0 12.83,0.22 18.96,-0.12 1.1,-1.89 0.53,-8.41 0.55,-11.3 0.18,-27.69 -0.14,-55.77 0,-83.51l-0.02 -83.51c0,-1.96 -0.08,-7.68 -1.03,-9.24l-0.87 -0.89c2.11,6.3 1.28,15.29 1.29,22.51 0,7.87 0.01,15.75 -0.01,23.63l0.01 129.65c-0.01,2.23 0.27,9.96 -0.14,11.55 -1.39,0.71 -7.18,0.31 -9.29,0.32l-275.96 0c-3.33,0 -16.81,0.51 -18.6,-0.31z"/>
  <path class="fil0" d="M226.44 234.93c0.43,0.58 1.6,1.46 2.22,2.07 2.92,2.85 2.23,0.43 4.81,-0.7 5.98,-2.61 11.73,-0.05 13.41,5.01 2.29,6.91 -2.86,14 -11.14,12.45 -2.7,-0.5 -4.58,-2.91 -5.23,-2.9 -0.42,0.01 -4.02,3.36 -4.24,3.65 1.76,4.29 16.7,9.94 25.18,-0.89 8.46,-10.79 -1.63,-28.09 -17.8,-23.64 -2.69,0.74 -6.85,2.74 -7.21,4.95z"/>
  <path class="fil0" d="M367.59 250.5c-0.81,0.32 -1.77,1.21 -2.51,1.76 -3.34,2.54 -11.27,2.26 -13.91,-4.49 -2.53,-6.49 2.52,-14.33 10.89,-12.68 2.94,0.58 4.71,2.87 5.33,2.93 0.74,0.07 3.88,-3.18 4.19,-3.93 -3.48,-4.23 -10.91,-6.64 -18.28,-3.96 -5.22,1.91 -9.65,7.1 -9.72,14.28 -0.12,10.79 10.35,17.23 20.61,14.63 2.84,-0.72 6.25,-2.74 7.28,-4.72 -0.33,-0.91 -3.19,-3.5 -3.88,-3.82z"/>
  <path class="fil0" d="M234.11 239.97c-2.09,1.11 -1.9,2.28 -5.28,3.01 -2.48,0.53 -5.36,-0.01 -7.07,-1.07 -7.97,-4.91 -4.91,-19.02 6.77,-17.34 3.38,0.48 4.89,2.71 5.46,2.87 0.71,0.2 3.67,-2.8 4.31,-3.51 -0.23,-1.07 -1.97,-2.27 -3.02,-2.98 -4,-2.71 -10.43,-3.02 -14.82,-1.42 -17.32,6.31 -11.48,33.75 10.72,28.93 2.58,-0.56 6.26,-2.85 7.14,-4.72 -0.35,-0.69 -3.37,-3.53 -4.21,-3.77z"/>
  <path class="fil0" d="M145.88 218.98c0.04,1.67 1,2.35 1.69,3.49 1.53,2.53 9.04,14.63 9.3,15.94 0.56,2.7 -0.33,7.46 0.13,9.95 0.96,0.45 5.52,0.29 6.69,0.01 0.62,-2.5 -0.29,-7.49 0.2,-10 0.27,-1.39 2.82,-5.06 3.66,-6.49l3.78 -6.35c0.66,-1 1.26,-1.93 1.86,-3.1 1.24,-2.44 1.75,-1.77 1.66,-3.19 -1.03,-0.63 -5.45,-0.31 -6.01,-0.03 -0.91,0.46 -2.16,2.9 -2.87,4.11 -0.86,1.47 -1.79,2.9 -2.64,4.34 -0.61,1 -1.86,3.77 -2.83,4.1 -0.83,-0.81 -4.35,-7.01 -5.21,-8.47 -0.66,-1.11 -1.83,-3.61 -2.87,-4.1 -0.85,-0.41 -5.33,-0.27 -6.54,-0.21z"/>
  <path class="fil0" d="M264.39 229.44c-1.02,-0.2 -2.79,-0.03 -3.95,-0.06 -1.63,-0.05 -2.41,-0.15 -2.51,1.51 -0.14,2.4 0.04,5.62 0.04,8.12 0,5.32 -0.07,10.66 0,15.98 0.06,4.46 -0.88,4.23 3.83,4.17l16.22 0c1.95,0.01 2.04,-0.52 1.82,-4.19 -0.05,-0.73 -0.08,-1.04 -0.5,-1.34 -0.52,-0.38 -9.43,-0.21 -11.25,-0.19 -1.46,0.02 -2.23,0.57 -3,-0.44 -1.14,-2.33 0.73,-21.56 -0.7,-23.56z"/>
  <path class="fil0" d="M337.98 229.45c-0.59,-0.12 -4.62,-0.16 -5.28,-0.08 -1.73,0.21 -1.14,2.55 -1.14,4.24 0.01,3.6 -0.01,7.2 0,10.8 0.01,3.6 -0.02,7.21 0,10.81 0.02,2.28 -0.84,3.78 1.57,3.92 1.31,0.08 4.08,0.24 5.04,-0.24 0.6,-0.86 0.24,-12.91 0.24,-14.94 -0.01,-2.84 0.5,-12.73 -0.43,-14.51z"/>
  <path class="fil0" d="M289.8 258.91c0.38,0.1 0.37,0.21 0.22,-0.15 0.31,-2.79 0.08,-26.83 -0.09,-28.33 -1.53,-0.25 -4.47,-0.19 -5.4,0.39 -0.26,0.26 -0.31,0.68 -0.32,1.65l-0.05 22.97c-0.07,5.29 1.09,2.59 5.64,3.47z"/>
  <path class="fil0" d="M303.53 258.9c-0.9,-0.16 -4.04,0.07 -5.26,-0.31 -0.38,-1.16 -0.15,-20.22 -0.14,-24.53 0,-0.56 -0.03,-1.28 0.01,-1.82l0.35 -1.31c0.22,-0.47 1.71,-0.44 2.25,-0.45 0.33,0 0.81,-0.01 1.13,0.02 1.35,0.12 1.19,0.4 2.49,1.49 1.9,1.59 0.89,1.37 3.04,3.73 0.53,0.59 0.47,0.72 0.83,1.24l3.07 3.41c0.66,0.64 0.77,1.07 2.33,2.63 0.31,0.32 0.6,0.57 0.87,0.94l2.4 3.66 1.2 0.01c0.25,-1.55 0.42,-1.94 0.43,-3.87 0,-1.5 0.03,-3 0.03,-4.5 0,-2.43 -0.27,-5.68 0.39,-7.6 0.3,-0.84 0.17,0.34 0.26,-0.91 0.85,0.69 0.36,-0.55 0.66,1.12l0.79 -0.36c1.35,0.17 0.27,0.18 0.81,0.45 0.04,0.02 0.71,0.2 1.01,0.31l1.39 0.68c0.03,4.35 0,8.71 0,13.06l0.23 12.94c0.47,-0.28 0.21,0.45 0.53,-0.79 0.07,-0.29 0.03,-0.58 0.03,-0.88 0,-0.61 0,-1.21 0,-1.82l0.01 -18.91c0.01,-7.58 0.98,-7.15 -3.68,-7.17 -1.29,0 -2.19,-0.31 -2.89,0.45 -1.1,1.35 -0.06,13.89 -0.38,16.75 -1.1,0.04 -1.84,-1.4 -2.45,-2.27 -0.7,-1.01 -1.41,-1.6 -2.17,-2.56l-8.64 -10.5c-0.82,-0.99 -1.07,-1.84 -2.81,-1.88 -1.73,-0.04 -2.99,-0.19 -4.25,0.51l0.02 28.9c1.15,0.61 5.93,0.7 6.11,0.14z"/>
  <path class="fil0" d="M289.8 258.91c-4.55,-0.88 -5.71,1.82 -5.64,-3.47l0.05 -22.97c0.01,-0.97 0.06,-1.39 0.32,-1.65 0.93,-0.58 3.87,-0.64 5.4,-0.39 0.17,1.5 0.4,25.54 0.09,28.33 1.02,-0.41 0.38,-6.04 0.39,-7.37 0,-2.47 0.01,-4.95 0,-7.43 -0.01,-2.44 0.47,-13.33 -0.49,-14.41 -0.87,-0.52 -5.46,-0.31 -6.45,0.23l-0.02 28.98c1.39,0.67 5.88,0.63 6.35,0.15z"/>
 </g>
</svg>
